<?xml version="1.0" encoding="UTF-8"?>
<svg width="14px" height="14px" viewBox="0 0 14 14" version="1.1" xmlns="http://www.w3.org/2000/svg" xmlns:xlink="http://www.w3.org/1999/xlink">
    <!-- Generator: Sketch 51.2 (57519) - http://www.bohemiancoding.com/sketch -->
    <title>Artboard</title>
    <desc>Created with Sketch.</desc>
    <defs></defs>
    <g id="Artboard" stroke="none" stroke-width="1" fill="none" fill-rule="evenodd">
        <g id="noun_back_1751217-copy-3" transform="translate(6.937500, 7.000000) rotate(-90.000000) translate(-6.937500, -7.000000) translate(3.000000, 0.000000)" fill="#9C9C9C" fill-rule="nonzero">
            <g id="Group">
                <path d="M2.60027298,6.99999993 L7.61107313,12.0108001 C7.94855949,12.3482865 7.94855949,12.89546 7.61107313,13.2329465 C7.27358671,13.5704328 6.72641315,13.5704328 6.38892673,13.2329465 L0.767053416,7.61107313 C0.429567017,7.27358671 0.429567017,6.72641315 0.767053416,6.38892673 L6.38892673,0.767053416 C6.72641315,0.429567017 7.27358671,0.429567017 7.61107313,0.767053416 C7.94855949,1.10453982 7.94855949,1.65171339 7.61107313,1.98919979 L2.60027298,6.99999993 Z" id="Shape"></path>
                <path d="M2.60027298,6.99999993 L7.61107313,12.0108001 C7.94855949,12.3482865 7.94855949,12.89546 7.61107313,13.2329465 C7.27358671,13.5704328 6.72641315,13.5704328 6.38892673,13.2329465 L0.767053416,7.61107313 C0.429567017,7.27358671 0.429567017,6.72641315 0.767053416,6.38892673 L6.38892673,0.767053416 C6.72641315,0.429567017 7.27358671,0.429567017 7.61107313,0.767053416 C7.94855949,1.10453982 7.94855949,1.65171339 7.61107313,1.98919979 L2.60027298,6.99999993 Z" id="Shape-Copy"></path>
            </g>
        </g>
    </g>
</svg>